<?xml version="1.0" encoding="utf-8" standalone="no"?>
<!DOCTYPE svg PUBLIC "-//W3C//DTD SVG 1.1//EN"
  "http://www.w3.org/Graphics/SVG/1.1/DTD/svg11.dtd">
<svg xmlns:xlink="http://www.w3.org/1999/xlink" width="576pt" height="288pt" viewBox="0 0 576 288" xmlns="http://www.w3.org/2000/svg" version="1.1">
 <metadata>
  <rdf:RDF xmlns:dc="http://purl.org/dc/elements/1.1/" xmlns:cc="http://creativecommons.org/ns#" xmlns:rdf="http://www.w3.org/1999/02/22-rdf-syntax-ns#">
   <cc:Work>
    <dc:type rdf:resource="http://purl.org/dc/dcmitype/StillImage"/>
    <dc:date>2024-12-18T23:50:10.243402</dc:date>
    <dc:format>image/svg+xml</dc:format>
    <dc:creator>
     <cc:Agent>
      <dc:title>Matplotlib v3.9.3, https://matplotlib.org/</dc:title>
     </cc:Agent>
    </dc:creator>
   </cc:Work>
  </rdf:RDF>
 </metadata>
 <defs>
  <style type="text/css">*{stroke-linejoin: round; stroke-linecap: butt}</style>
 </defs>
 <g id="figure_1">
  <g id="patch_1">
   <path d="M 0 288 
L 576 288 
L 576 0 
L 0 0 
z
" style="fill: #ffffff"/>
  </g>
  <g id="axes_1">
   <g id="patch_2">
    <path d="M 72 256.32 
L 518.4 256.32 
L 518.4 34.56 
L 72 34.56 
z
" style="fill: #ffffff"/>
   </g>
   <g id="matplotlib.axis_1">
    <g id="xtick_1">
     <g id="line2d_1">
      <path d="M 92.290909 256.32 
L 92.290909 34.56 
" clip-path="url(#p8f6a73d315)" style="fill: none; stroke: #b0b0b0; stroke-width: 0.8; stroke-linecap: square"/>
     </g>
     <g id="line2d_2">
      <defs>
       <path id="m98324de883" d="M 0 0 
L 0 3.5 
" style="stroke: #000000; stroke-width: 0.8"/>
      </defs>
      <g>
       <use xlink:href="#m98324de883" x="92.290909" y="256.32" style="stroke: #000000; stroke-width: 0.8"/>
      </g>
     </g>
     <g id="text_1">
      <!-- 0 -->
      <g transform="translate(89.109659 270.918437) scale(0.1 -0.1)">
       <defs>
        <path id="DejaVuSans-30" d="M 2034 4250 
Q 1547 4250 1301 3770 
Q 1056 3291 1056 2328 
Q 1056 1369 1301 889 
Q 1547 409 2034 409 
Q 2525 409 2770 889 
Q 3016 1369 3016 2328 
Q 3016 3291 2770 3770 
Q 2525 4250 2034 4250 
z
M 2034 4750 
Q 2819 4750 3233 4129 
Q 3647 3509 3647 2328 
Q 3647 1150 3233 529 
Q 2819 -91 2034 -91 
Q 1250 -91 836 529 
Q 422 1150 422 2328 
Q 422 3509 836 4129 
Q 1250 4750 2034 4750 
z
" transform="scale(0.015625)"/>
       </defs>
       <use xlink:href="#DejaVuSans-30"/>
      </g>
     </g>
    </g>
    <g id="xtick_2">
     <g id="line2d_3">
      <path d="M 173.462663 256.32 
L 173.462663 34.56 
" clip-path="url(#p8f6a73d315)" style="fill: none; stroke: #b0b0b0; stroke-width: 0.8; stroke-linecap: square"/>
     </g>
     <g id="line2d_4">
      <g>
       <use xlink:href="#m98324de883" x="173.462663" y="256.32" style="stroke: #000000; stroke-width: 0.8"/>
      </g>
     </g>
     <g id="text_2">
      <!-- 2000 -->
      <g transform="translate(160.737663 270.918437) scale(0.1 -0.1)">
       <defs>
        <path id="DejaVuSans-32" d="M 1228 531 
L 3431 531 
L 3431 0 
L 469 0 
L 469 531 
Q 828 903 1448 1529 
Q 2069 2156 2228 2338 
Q 2531 2678 2651 2914 
Q 2772 3150 2772 3378 
Q 2772 3750 2511 3984 
Q 2250 4219 1831 4219 
Q 1534 4219 1204 4116 
Q 875 4013 500 3803 
L 500 4441 
Q 881 4594 1212 4672 
Q 1544 4750 1819 4750 
Q 2544 4750 2975 4387 
Q 3406 4025 3406 3419 
Q 3406 3131 3298 2873 
Q 3191 2616 2906 2266 
Q 2828 2175 2409 1742 
Q 1991 1309 1228 531 
z
" transform="scale(0.015625)"/>
       </defs>
       <use xlink:href="#DejaVuSans-32"/>
       <use xlink:href="#DejaVuSans-30" x="63.623047"/>
       <use xlink:href="#DejaVuSans-30" x="127.246094"/>
       <use xlink:href="#DejaVuSans-30" x="190.869141"/>
      </g>
     </g>
    </g>
    <g id="xtick_3">
     <g id="line2d_5">
      <path d="M 254.634416 256.32 
L 254.634416 34.56 
" clip-path="url(#p8f6a73d315)" style="fill: none; stroke: #b0b0b0; stroke-width: 0.8; stroke-linecap: square"/>
     </g>
     <g id="line2d_6">
      <g>
       <use xlink:href="#m98324de883" x="254.634416" y="256.32" style="stroke: #000000; stroke-width: 0.8"/>
      </g>
     </g>
     <g id="text_3">
      <!-- 4000 -->
      <g transform="translate(241.909416 270.918437) scale(0.1 -0.1)">
       <defs>
        <path id="DejaVuSans-34" d="M 2419 4116 
L 825 1625 
L 2419 1625 
L 2419 4116 
z
M 2253 4666 
L 3047 4666 
L 3047 1625 
L 3713 1625 
L 3713 1100 
L 3047 1100 
L 3047 0 
L 2419 0 
L 2419 1100 
L 313 1100 
L 313 1709 
L 2253 4666 
z
" transform="scale(0.015625)"/>
       </defs>
       <use xlink:href="#DejaVuSans-34"/>
       <use xlink:href="#DejaVuSans-30" x="63.623047"/>
       <use xlink:href="#DejaVuSans-30" x="127.246094"/>
       <use xlink:href="#DejaVuSans-30" x="190.869141"/>
      </g>
     </g>
    </g>
    <g id="xtick_4">
     <g id="line2d_7">
      <path d="M 335.80617 256.32 
L 335.80617 34.56 
" clip-path="url(#p8f6a73d315)" style="fill: none; stroke: #b0b0b0; stroke-width: 0.8; stroke-linecap: square"/>
     </g>
     <g id="line2d_8">
      <g>
       <use xlink:href="#m98324de883" x="335.80617" y="256.32" style="stroke: #000000; stroke-width: 0.8"/>
      </g>
     </g>
     <g id="text_4">
      <!-- 6000 -->
      <g transform="translate(323.08117 270.918437) scale(0.1 -0.1)">
       <defs>
        <path id="DejaVuSans-36" d="M 2113 2584 
Q 1688 2584 1439 2293 
Q 1191 2003 1191 1497 
Q 1191 994 1439 701 
Q 1688 409 2113 409 
Q 2538 409 2786 701 
Q 3034 994 3034 1497 
Q 3034 2003 2786 2293 
Q 2538 2584 2113 2584 
z
M 3366 4563 
L 3366 3988 
Q 3128 4100 2886 4159 
Q 2644 4219 2406 4219 
Q 1781 4219 1451 3797 
Q 1122 3375 1075 2522 
Q 1259 2794 1537 2939 
Q 1816 3084 2150 3084 
Q 2853 3084 3261 2657 
Q 3669 2231 3669 1497 
Q 3669 778 3244 343 
Q 2819 -91 2113 -91 
Q 1303 -91 875 529 
Q 447 1150 447 2328 
Q 447 3434 972 4092 
Q 1497 4750 2381 4750 
Q 2619 4750 2861 4703 
Q 3103 4656 3366 4563 
z
" transform="scale(0.015625)"/>
       </defs>
       <use xlink:href="#DejaVuSans-36"/>
       <use xlink:href="#DejaVuSans-30" x="63.623047"/>
       <use xlink:href="#DejaVuSans-30" x="127.246094"/>
       <use xlink:href="#DejaVuSans-30" x="190.869141"/>
      </g>
     </g>
    </g>
    <g id="xtick_5">
     <g id="line2d_9">
      <path d="M 416.977923 256.32 
L 416.977923 34.56 
" clip-path="url(#p8f6a73d315)" style="fill: none; stroke: #b0b0b0; stroke-width: 0.8; stroke-linecap: square"/>
     </g>
     <g id="line2d_10">
      <g>
       <use xlink:href="#m98324de883" x="416.977923" y="256.32" style="stroke: #000000; stroke-width: 0.8"/>
      </g>
     </g>
     <g id="text_5">
      <!-- 8000 -->
      <g transform="translate(404.252923 270.918437) scale(0.1 -0.1)">
       <defs>
        <path id="DejaVuSans-38" d="M 2034 2216 
Q 1584 2216 1326 1975 
Q 1069 1734 1069 1313 
Q 1069 891 1326 650 
Q 1584 409 2034 409 
Q 2484 409 2743 651 
Q 3003 894 3003 1313 
Q 3003 1734 2745 1975 
Q 2488 2216 2034 2216 
z
M 1403 2484 
Q 997 2584 770 2862 
Q 544 3141 544 3541 
Q 544 4100 942 4425 
Q 1341 4750 2034 4750 
Q 2731 4750 3128 4425 
Q 3525 4100 3525 3541 
Q 3525 3141 3298 2862 
Q 3072 2584 2669 2484 
Q 3125 2378 3379 2068 
Q 3634 1759 3634 1313 
Q 3634 634 3220 271 
Q 2806 -91 2034 -91 
Q 1263 -91 848 271 
Q 434 634 434 1313 
Q 434 1759 690 2068 
Q 947 2378 1403 2484 
z
M 1172 3481 
Q 1172 3119 1398 2916 
Q 1625 2713 2034 2713 
Q 2441 2713 2670 2916 
Q 2900 3119 2900 3481 
Q 2900 3844 2670 4047 
Q 2441 4250 2034 4250 
Q 1625 4250 1398 4047 
Q 1172 3844 1172 3481 
z
" transform="scale(0.015625)"/>
       </defs>
       <use xlink:href="#DejaVuSans-38"/>
       <use xlink:href="#DejaVuSans-30" x="63.623047"/>
       <use xlink:href="#DejaVuSans-30" x="127.246094"/>
       <use xlink:href="#DejaVuSans-30" x="190.869141"/>
      </g>
     </g>
    </g>
    <g id="xtick_6">
     <g id="line2d_11">
      <path d="M 498.149677 256.32 
L 498.149677 34.56 
" clip-path="url(#p8f6a73d315)" style="fill: none; stroke: #b0b0b0; stroke-width: 0.8; stroke-linecap: square"/>
     </g>
     <g id="line2d_12">
      <g>
       <use xlink:href="#m98324de883" x="498.149677" y="256.32" style="stroke: #000000; stroke-width: 0.8"/>
      </g>
     </g>
     <g id="text_6">
      <!-- 10000 -->
      <g transform="translate(482.243427 270.918437) scale(0.1 -0.1)">
       <defs>
        <path id="DejaVuSans-31" d="M 794 531 
L 1825 531 
L 1825 4091 
L 703 3866 
L 703 4441 
L 1819 4666 
L 2450 4666 
L 2450 531 
L 3481 531 
L 3481 0 
L 794 0 
L 794 531 
z
" transform="scale(0.015625)"/>
       </defs>
       <use xlink:href="#DejaVuSans-31"/>
       <use xlink:href="#DejaVuSans-30" x="63.623047"/>
       <use xlink:href="#DejaVuSans-30" x="127.246094"/>
       <use xlink:href="#DejaVuSans-30" x="190.869141"/>
       <use xlink:href="#DejaVuSans-30" x="254.492188"/>
      </g>
     </g>
    </g>
    <g id="text_7">
     <!-- Intrusion Radius -->
     <g transform="translate(254.798437 284.596563) scale(0.1 -0.1)">
      <defs>
       <path id="DejaVuSans-49" d="M 628 4666 
L 1259 4666 
L 1259 0 
L 628 0 
L 628 4666 
z
" transform="scale(0.015625)"/>
       <path id="DejaVuSans-6e" d="M 3513 2113 
L 3513 0 
L 2938 0 
L 2938 2094 
Q 2938 2591 2744 2837 
Q 2550 3084 2163 3084 
Q 1697 3084 1428 2787 
Q 1159 2491 1159 1978 
L 1159 0 
L 581 0 
L 581 3500 
L 1159 3500 
L 1159 2956 
Q 1366 3272 1645 3428 
Q 1925 3584 2291 3584 
Q 2894 3584 3203 3211 
Q 3513 2838 3513 2113 
z
" transform="scale(0.015625)"/>
       <path id="DejaVuSans-74" d="M 1172 4494 
L 1172 3500 
L 2356 3500 
L 2356 3053 
L 1172 3053 
L 1172 1153 
Q 1172 725 1289 603 
Q 1406 481 1766 481 
L 2356 481 
L 2356 0 
L 1766 0 
Q 1100 0 847 248 
Q 594 497 594 1153 
L 594 3053 
L 172 3053 
L 172 3500 
L 594 3500 
L 594 4494 
L 1172 4494 
z
" transform="scale(0.015625)"/>
       <path id="DejaVuSans-72" d="M 2631 2963 
Q 2534 3019 2420 3045 
Q 2306 3072 2169 3072 
Q 1681 3072 1420 2755 
Q 1159 2438 1159 1844 
L 1159 0 
L 581 0 
L 581 3500 
L 1159 3500 
L 1159 2956 
Q 1341 3275 1631 3429 
Q 1922 3584 2338 3584 
Q 2397 3584 2469 3576 
Q 2541 3569 2628 3553 
L 2631 2963 
z
" transform="scale(0.015625)"/>
       <path id="DejaVuSans-75" d="M 544 1381 
L 544 3500 
L 1119 3500 
L 1119 1403 
Q 1119 906 1312 657 
Q 1506 409 1894 409 
Q 2359 409 2629 706 
Q 2900 1003 2900 1516 
L 2900 3500 
L 3475 3500 
L 3475 0 
L 2900 0 
L 2900 538 
Q 2691 219 2414 64 
Q 2138 -91 1772 -91 
Q 1169 -91 856 284 
Q 544 659 544 1381 
z
M 1991 3584 
L 1991 3584 
z
" transform="scale(0.015625)"/>
       <path id="DejaVuSans-73" d="M 2834 3397 
L 2834 2853 
Q 2591 2978 2328 3040 
Q 2066 3103 1784 3103 
Q 1356 3103 1142 2972 
Q 928 2841 928 2578 
Q 928 2378 1081 2264 
Q 1234 2150 1697 2047 
L 1894 2003 
Q 2506 1872 2764 1633 
Q 3022 1394 3022 966 
Q 3022 478 2636 193 
Q 2250 -91 1575 -91 
Q 1294 -91 989 -36 
Q 684 19 347 128 
L 347 722 
Q 666 556 975 473 
Q 1284 391 1588 391 
Q 1994 391 2212 530 
Q 2431 669 2431 922 
Q 2431 1156 2273 1281 
Q 2116 1406 1581 1522 
L 1381 1569 
Q 847 1681 609 1914 
Q 372 2147 372 2553 
Q 372 3047 722 3315 
Q 1072 3584 1716 3584 
Q 2034 3584 2315 3537 
Q 2597 3491 2834 3397 
z
" transform="scale(0.015625)"/>
       <path id="DejaVuSans-69" d="M 603 3500 
L 1178 3500 
L 1178 0 
L 603 0 
L 603 3500 
z
M 603 4863 
L 1178 4863 
L 1178 4134 
L 603 4134 
L 603 4863 
z
" transform="scale(0.015625)"/>
       <path id="DejaVuSans-6f" d="M 1959 3097 
Q 1497 3097 1228 2736 
Q 959 2375 959 1747 
Q 959 1119 1226 758 
Q 1494 397 1959 397 
Q 2419 397 2687 759 
Q 2956 1122 2956 1747 
Q 2956 2369 2687 2733 
Q 2419 3097 1959 3097 
z
M 1959 3584 
Q 2709 3584 3137 3096 
Q 3566 2609 3566 1747 
Q 3566 888 3137 398 
Q 2709 -91 1959 -91 
Q 1206 -91 779 398 
Q 353 888 353 1747 
Q 353 2609 779 3096 
Q 1206 3584 1959 3584 
z
" transform="scale(0.015625)"/>
       <path id="DejaVuSans-20" transform="scale(0.015625)"/>
       <path id="DejaVuSans-52" d="M 2841 2188 
Q 3044 2119 3236 1894 
Q 3428 1669 3622 1275 
L 4263 0 
L 3584 0 
L 2988 1197 
Q 2756 1666 2539 1819 
Q 2322 1972 1947 1972 
L 1259 1972 
L 1259 0 
L 628 0 
L 628 4666 
L 2053 4666 
Q 2853 4666 3247 4331 
Q 3641 3997 3641 3322 
Q 3641 2881 3436 2590 
Q 3231 2300 2841 2188 
z
M 1259 4147 
L 1259 2491 
L 2053 2491 
Q 2509 2491 2742 2702 
Q 2975 2913 2975 3322 
Q 2975 3731 2742 3939 
Q 2509 4147 2053 4147 
L 1259 4147 
z
" transform="scale(0.015625)"/>
       <path id="DejaVuSans-61" d="M 2194 1759 
Q 1497 1759 1228 1600 
Q 959 1441 959 1056 
Q 959 750 1161 570 
Q 1363 391 1709 391 
Q 2188 391 2477 730 
Q 2766 1069 2766 1631 
L 2766 1759 
L 2194 1759 
z
M 3341 1997 
L 3341 0 
L 2766 0 
L 2766 531 
Q 2569 213 2275 61 
Q 1981 -91 1556 -91 
Q 1019 -91 701 211 
Q 384 513 384 1019 
Q 384 1609 779 1909 
Q 1175 2209 1959 2209 
L 2766 2209 
L 2766 2266 
Q 2766 2663 2505 2880 
Q 2244 3097 1772 3097 
Q 1472 3097 1187 3025 
Q 903 2953 641 2809 
L 641 3341 
Q 956 3463 1253 3523 
Q 1550 3584 1831 3584 
Q 2591 3584 2966 3190 
Q 3341 2797 3341 1997 
z
" transform="scale(0.015625)"/>
       <path id="DejaVuSans-64" d="M 2906 2969 
L 2906 4863 
L 3481 4863 
L 3481 0 
L 2906 0 
L 2906 525 
Q 2725 213 2448 61 
Q 2172 -91 1784 -91 
Q 1150 -91 751 415 
Q 353 922 353 1747 
Q 353 2572 751 3078 
Q 1150 3584 1784 3584 
Q 2172 3584 2448 3432 
Q 2725 3281 2906 2969 
z
M 947 1747 
Q 947 1113 1208 752 
Q 1469 391 1925 391 
Q 2381 391 2643 752 
Q 2906 1113 2906 1747 
Q 2906 2381 2643 2742 
Q 2381 3103 1925 3103 
Q 1469 3103 1208 2742 
Q 947 2381 947 1747 
z
" transform="scale(0.015625)"/>
      </defs>
      <use xlink:href="#DejaVuSans-49"/>
      <use xlink:href="#DejaVuSans-6e" x="29.492188"/>
      <use xlink:href="#DejaVuSans-74" x="92.871094"/>
      <use xlink:href="#DejaVuSans-72" x="132.080078"/>
      <use xlink:href="#DejaVuSans-75" x="173.193359"/>
      <use xlink:href="#DejaVuSans-73" x="236.572266"/>
      <use xlink:href="#DejaVuSans-69" x="288.671875"/>
      <use xlink:href="#DejaVuSans-6f" x="316.455078"/>
      <use xlink:href="#DejaVuSans-6e" x="377.636719"/>
      <use xlink:href="#DejaVuSans-20" x="441.015625"/>
      <use xlink:href="#DejaVuSans-52" x="472.802734"/>
      <use xlink:href="#DejaVuSans-61" x="540.035156"/>
      <use xlink:href="#DejaVuSans-64" x="601.314453"/>
      <use xlink:href="#DejaVuSans-69" x="664.791016"/>
      <use xlink:href="#DejaVuSans-75" x="692.574219"/>
      <use xlink:href="#DejaVuSans-73" x="755.953125"/>
     </g>
    </g>
   </g>
   <g id="matplotlib.axis_2">
    <g id="ytick_1">
     <g id="line2d_13">
      <path d="M 72 246.24 
L 518.4 246.24 
" clip-path="url(#p8f6a73d315)" style="fill: none; stroke: #b0b0b0; stroke-width: 0.8; stroke-linecap: square"/>
     </g>
     <g id="line2d_14">
      <defs>
       <path id="m8dfeeffbab" d="M 0 0 
L -3.5 0 
" style="stroke: #000000; stroke-width: 0.8"/>
      </defs>
      <g>
       <use xlink:href="#m8dfeeffbab" x="72" y="246.24" style="stroke: #000000; stroke-width: 0.8"/>
      </g>
     </g>
     <g id="text_8">
      <!-- 0 -->
      <g transform="translate(58.6375 250.039219) scale(0.1 -0.1)">
       <use xlink:href="#DejaVuSans-30"/>
      </g>
     </g>
    </g>
    <g id="ytick_2">
     <g id="line2d_15">
      <path d="M 72 203.277369 
L 518.4 203.277369 
" clip-path="url(#p8f6a73d315)" style="fill: none; stroke: #b0b0b0; stroke-width: 0.8; stroke-linecap: square"/>
     </g>
     <g id="line2d_16">
      <g>
       <use xlink:href="#m8dfeeffbab" x="72" y="203.277369" style="stroke: #000000; stroke-width: 0.8"/>
      </g>
     </g>
     <g id="text_9">
      <!-- 2000 -->
      <g transform="translate(39.55 207.076587) scale(0.1 -0.1)">
       <use xlink:href="#DejaVuSans-32"/>
       <use xlink:href="#DejaVuSans-30" x="63.623047"/>
       <use xlink:href="#DejaVuSans-30" x="127.246094"/>
       <use xlink:href="#DejaVuSans-30" x="190.869141"/>
      </g>
     </g>
    </g>
    <g id="ytick_3">
     <g id="line2d_17">
      <path d="M 72 160.314737 
L 518.4 160.314737 
" clip-path="url(#p8f6a73d315)" style="fill: none; stroke: #b0b0b0; stroke-width: 0.8; stroke-linecap: square"/>
     </g>
     <g id="line2d_18">
      <g>
       <use xlink:href="#m8dfeeffbab" x="72" y="160.314737" style="stroke: #000000; stroke-width: 0.8"/>
      </g>
     </g>
     <g id="text_10">
      <!-- 4000 -->
      <g transform="translate(39.55 164.113956) scale(0.1 -0.1)">
       <use xlink:href="#DejaVuSans-34"/>
       <use xlink:href="#DejaVuSans-30" x="63.623047"/>
       <use xlink:href="#DejaVuSans-30" x="127.246094"/>
       <use xlink:href="#DejaVuSans-30" x="190.869141"/>
      </g>
     </g>
    </g>
    <g id="ytick_4">
     <g id="line2d_19">
      <path d="M 72 117.352106 
L 518.4 117.352106 
" clip-path="url(#p8f6a73d315)" style="fill: none; stroke: #b0b0b0; stroke-width: 0.8; stroke-linecap: square"/>
     </g>
     <g id="line2d_20">
      <g>
       <use xlink:href="#m8dfeeffbab" x="72" y="117.352106" style="stroke: #000000; stroke-width: 0.8"/>
      </g>
     </g>
     <g id="text_11">
      <!-- 6000 -->
      <g transform="translate(39.55 121.151324) scale(0.1 -0.1)">
       <use xlink:href="#DejaVuSans-36"/>
       <use xlink:href="#DejaVuSans-30" x="63.623047"/>
       <use xlink:href="#DejaVuSans-30" x="127.246094"/>
       <use xlink:href="#DejaVuSans-30" x="190.869141"/>
      </g>
     </g>
    </g>
    <g id="ytick_5">
     <g id="line2d_21">
      <path d="M 72 74.389474 
L 518.4 74.389474 
" clip-path="url(#p8f6a73d315)" style="fill: none; stroke: #b0b0b0; stroke-width: 0.8; stroke-linecap: square"/>
     </g>
     <g id="line2d_22">
      <g>
       <use xlink:href="#m8dfeeffbab" x="72" y="74.389474" style="stroke: #000000; stroke-width: 0.8"/>
      </g>
     </g>
     <g id="text_12">
      <!-- 8000 -->
      <g transform="translate(39.55 78.188693) scale(0.1 -0.1)">
       <use xlink:href="#DejaVuSans-38"/>
       <use xlink:href="#DejaVuSans-30" x="63.623047"/>
       <use xlink:href="#DejaVuSans-30" x="127.246094"/>
       <use xlink:href="#DejaVuSans-30" x="190.869141"/>
      </g>
     </g>
    </g>
    <g id="text_13">
     <!-- Average Culling Statistic -->
     <g transform="translate(33.470312 206.572031) rotate(-90) scale(0.1 -0.1)">
      <defs>
       <path id="DejaVuSans-41" d="M 2188 4044 
L 1331 1722 
L 3047 1722 
L 2188 4044 
z
M 1831 4666 
L 2547 4666 
L 4325 0 
L 3669 0 
L 3244 1197 
L 1141 1197 
L 716 0 
L 50 0 
L 1831 4666 
z
" transform="scale(0.015625)"/>
       <path id="DejaVuSans-76" d="M 191 3500 
L 800 3500 
L 1894 563 
L 2988 3500 
L 3597 3500 
L 2284 0 
L 1503 0 
L 191 3500 
z
" transform="scale(0.015625)"/>
       <path id="DejaVuSans-65" d="M 3597 1894 
L 3597 1613 
L 953 1613 
Q 991 1019 1311 708 
Q 1631 397 2203 397 
Q 2534 397 2845 478 
Q 3156 559 3463 722 
L 3463 178 
Q 3153 47 2828 -22 
Q 2503 -91 2169 -91 
Q 1331 -91 842 396 
Q 353 884 353 1716 
Q 353 2575 817 3079 
Q 1281 3584 2069 3584 
Q 2775 3584 3186 3129 
Q 3597 2675 3597 1894 
z
M 3022 2063 
Q 3016 2534 2758 2815 
Q 2500 3097 2075 3097 
Q 1594 3097 1305 2825 
Q 1016 2553 972 2059 
L 3022 2063 
z
" transform="scale(0.015625)"/>
       <path id="DejaVuSans-67" d="M 2906 1791 
Q 2906 2416 2648 2759 
Q 2391 3103 1925 3103 
Q 1463 3103 1205 2759 
Q 947 2416 947 1791 
Q 947 1169 1205 825 
Q 1463 481 1925 481 
Q 2391 481 2648 825 
Q 2906 1169 2906 1791 
z
M 3481 434 
Q 3481 -459 3084 -895 
Q 2688 -1331 1869 -1331 
Q 1566 -1331 1297 -1286 
Q 1028 -1241 775 -1147 
L 775 -588 
Q 1028 -725 1275 -790 
Q 1522 -856 1778 -856 
Q 2344 -856 2625 -561 
Q 2906 -266 2906 331 
L 2906 616 
Q 2728 306 2450 153 
Q 2172 0 1784 0 
Q 1141 0 747 490 
Q 353 981 353 1791 
Q 353 2603 747 3093 
Q 1141 3584 1784 3584 
Q 2172 3584 2450 3431 
Q 2728 3278 2906 2969 
L 2906 3500 
L 3481 3500 
L 3481 434 
z
" transform="scale(0.015625)"/>
       <path id="DejaVuSans-43" d="M 4122 4306 
L 4122 3641 
Q 3803 3938 3442 4084 
Q 3081 4231 2675 4231 
Q 1875 4231 1450 3742 
Q 1025 3253 1025 2328 
Q 1025 1406 1450 917 
Q 1875 428 2675 428 
Q 3081 428 3442 575 
Q 3803 722 4122 1019 
L 4122 359 
Q 3791 134 3420 21 
Q 3050 -91 2638 -91 
Q 1578 -91 968 557 
Q 359 1206 359 2328 
Q 359 3453 968 4101 
Q 1578 4750 2638 4750 
Q 3056 4750 3426 4639 
Q 3797 4528 4122 4306 
z
" transform="scale(0.015625)"/>
       <path id="DejaVuSans-6c" d="M 603 4863 
L 1178 4863 
L 1178 0 
L 603 0 
L 603 4863 
z
" transform="scale(0.015625)"/>
       <path id="DejaVuSans-53" d="M 3425 4513 
L 3425 3897 
Q 3066 4069 2747 4153 
Q 2428 4238 2131 4238 
Q 1616 4238 1336 4038 
Q 1056 3838 1056 3469 
Q 1056 3159 1242 3001 
Q 1428 2844 1947 2747 
L 2328 2669 
Q 3034 2534 3370 2195 
Q 3706 1856 3706 1288 
Q 3706 609 3251 259 
Q 2797 -91 1919 -91 
Q 1588 -91 1214 -16 
Q 841 59 441 206 
L 441 856 
Q 825 641 1194 531 
Q 1563 422 1919 422 
Q 2459 422 2753 634 
Q 3047 847 3047 1241 
Q 3047 1584 2836 1778 
Q 2625 1972 2144 2069 
L 1759 2144 
Q 1053 2284 737 2584 
Q 422 2884 422 3419 
Q 422 4038 858 4394 
Q 1294 4750 2059 4750 
Q 2388 4750 2728 4690 
Q 3069 4631 3425 4513 
z
" transform="scale(0.015625)"/>
       <path id="DejaVuSans-63" d="M 3122 3366 
L 3122 2828 
Q 2878 2963 2633 3030 
Q 2388 3097 2138 3097 
Q 1578 3097 1268 2742 
Q 959 2388 959 1747 
Q 959 1106 1268 751 
Q 1578 397 2138 397 
Q 2388 397 2633 464 
Q 2878 531 3122 666 
L 3122 134 
Q 2881 22 2623 -34 
Q 2366 -91 2075 -91 
Q 1284 -91 818 406 
Q 353 903 353 1747 
Q 353 2603 823 3093 
Q 1294 3584 2113 3584 
Q 2378 3584 2631 3529 
Q 2884 3475 3122 3366 
z
" transform="scale(0.015625)"/>
      </defs>
      <use xlink:href="#DejaVuSans-41"/>
      <use xlink:href="#DejaVuSans-76" x="62.533203"/>
      <use xlink:href="#DejaVuSans-65" x="121.712891"/>
      <use xlink:href="#DejaVuSans-72" x="183.236328"/>
      <use xlink:href="#DejaVuSans-61" x="224.349609"/>
      <use xlink:href="#DejaVuSans-67" x="285.628906"/>
      <use xlink:href="#DejaVuSans-65" x="349.105469"/>
      <use xlink:href="#DejaVuSans-20" x="410.628906"/>
      <use xlink:href="#DejaVuSans-43" x="442.416016"/>
      <use xlink:href="#DejaVuSans-75" x="512.240234"/>
      <use xlink:href="#DejaVuSans-6c" x="575.619141"/>
      <use xlink:href="#DejaVuSans-6c" x="603.402344"/>
      <use xlink:href="#DejaVuSans-69" x="631.185547"/>
      <use xlink:href="#DejaVuSans-6e" x="658.96875"/>
      <use xlink:href="#DejaVuSans-67" x="722.347656"/>
      <use xlink:href="#DejaVuSans-20" x="785.824219"/>
      <use xlink:href="#DejaVuSans-53" x="817.611328"/>
      <use xlink:href="#DejaVuSans-74" x="881.087891"/>
      <use xlink:href="#DejaVuSans-61" x="920.296875"/>
      <use xlink:href="#DejaVuSans-74" x="981.576172"/>
      <use xlink:href="#DejaVuSans-69" x="1020.785156"/>
      <use xlink:href="#DejaVuSans-73" x="1048.568359"/>
      <use xlink:href="#DejaVuSans-74" x="1100.667969"/>
      <use xlink:href="#DejaVuSans-69" x="1139.876953"/>
      <use xlink:href="#DejaVuSans-63" x="1167.660156"/>
     </g>
    </g>
   </g>
   <g id="line2d_23">
    <path d="M 92.290909 245.651412 
L 95.537779 245.55045 
L 103.654955 245.436599 
L 108.52526 245.318452 
L 115.019 245.213193 
L 121.51274 245.180971 
L 126.383046 245.258304 
L 131.253351 245.223934 
L 144.240831 245.42371 
L 157.228312 245.475265 
L 170.215792 245.406525 
L 173.462663 245.346377 
L 188.073578 245.440895 
L 191.320448 245.348525 
L 246.517241 245.277637 
L 251.387546 245.29697 
L 257.881286 245.36571 
L 261.128156 245.436599 
L 283.856247 245.511783 
L 287.103118 245.569783 
L 293.596858 245.554746 
L 298.467163 245.627783 
L 304.960903 245.591264 
L 308.207774 245.56119 
L 317.948384 245.541857 
L 327.688994 245.477413 
L 363.404566 245.488154 
L 369.898306 245.49245 
L 389.379527 245.327044 
L 392.626397 245.29697 
L 400.743573 245.415117 
L 403.990443 245.309859 
L 407.237313 245.350674 
L 412.107618 245.421562 
L 428.341969 245.382896 
L 433.212274 245.352822 
L 439.706014 245.400081 
L 442.952884 245.434451 
L 451.07006 245.58482 
L 460.81067 245.535413 
L 477.045021 245.554746 
L 480.291891 245.644968 
L 491.655937 245.621338 
L 496.526242 245.657856 
L 496.526242 245.657856 
" clip-path="url(#p8f6a73d315)" style="fill: none; stroke: #1f77b4; stroke-width: 1.5; stroke-linecap: square"/>
   </g>
   <g id="line2d_24">
    <path d="M 92.290909 246.24 
L 92.290909 245.651412 
L 100.408084 242.242327 
L 103.654955 240.689228 
L 108.52526 238.11147 
L 113.395565 235.06542 
L 134.500221 221.779226 
L 140.993961 218.114513 
L 149.111137 214.011582 
L 153.981442 211.773229 
L 158.851747 209.526283 
L 165.345487 206.407196 
L 170.215792 203.913215 
L 178.332968 199.522435 
L 183.203273 197.202452 
L 189.697013 193.930848 
L 209.178234 183.112857 
L 215.671974 179.250517 
L 220.54228 176.36128 
L 225.412585 173.289452 
L 231.906325 169.581777 
L 236.77663 166.802094 
L 248.140676 160.046221 
L 253.010981 157.270835 
L 257.881286 154.495449 
L 269.245332 148.938232 
L 275.739072 146.08981 
L 283.856247 142.519615 
L 288.726553 140.498223 
L 293.596858 138.367277 
L 311.454644 131.30422 
L 321.195254 127.21203 
L 327.688994 124.232571 
L 339.05304 118.810687 
L 347.170215 114.632571 
L 350.417085 113.051546 
L 360.157696 108.570544 
L 366.651436 105.651233 
L 371.521741 103.449398 
L 384.509222 97.402408 
L 387.756092 95.716124 
L 407.237313 84.850875 
L 416.977923 79.957431 
L 423.471664 76.782493 
L 428.341969 74.316438 
L 434.835709 70.778465 
L 446.199755 65.176138 
L 468.927846 55.563249 
L 475.421586 52.609568 
L 478.668456 51.314245 
L 491.655937 46.442282 
L 496.526242 44.64 
L 496.526242 44.64 
" clip-path="url(#p8f6a73d315)" style="fill: none; stroke: #ff7f0e; stroke-width: 1.5; stroke-linecap: square"/>
   </g>
   <g id="line2d_25">
    <path d="M 92.290909 246.24 
L 92.372081 246.231407 
L 94.036102 246.124001 
L 98.013518 245.591264 
L 99.028165 245.434451 
L 100.732771 245.153045 
L 101.219802 245.064972 
L 103.411439 244.721271 
L 106.171279 244.242238 
L 106.942411 244.139127 
L 107.348269 244.068239 
L 108.119401 243.965129 
L 110.067523 243.66439 
L 111.203928 243.494688 
L 113.436151 243.131654 
L 115.100172 242.843804 
L 116.520678 242.65262 
L 117.291809 242.545214 
L 119.442861 242.207957 
L 121.228639 241.937292 
L 122.365044 241.76759 
L 124.921954 241.385223 
L 132.024482 240.145751 
L 134.419049 239.746198 
L 135.39311 239.585088 
L 136.975959 239.312276 
L 137.584748 239.232795 
L 138.234122 239.127536 
L 141.643335 238.517467 
L 142.414467 238.367098 
L 143.591457 238.107174 
L 144.809034 237.870879 
L 147.244186 237.338143 
L 148.177661 237.13407 
L 149.029965 236.975109 
L 150.004026 236.762443 
L 160.840455 234.579942 
L 199.031765 228.627469 
L 202.643908 228.135547 
L 204.551444 227.843401 
L 209.178234 227.246221 
L 210.030538 227.134518 
L 210.923427 227.027111 
L 212.343933 226.838076 
L 215.590803 226.389116 
L 216.118419 226.303191 
L 218.431814 225.946601 
L 229.430587 224.094912 
L 230.039375 223.983209 
L 235.112609 223.01655 
L 235.802569 222.874773 
L 236.817216 222.666404 
L 238.35948 222.391443 
L 249.48001 220.148794 
L 251.103445 219.865241 
L 252.442779 219.620354 
L 253.376254 219.461392 
L 255.405548 219.137024 
L 259.22062 218.434585 
L 259.788823 218.327178 
L 266.039048 217.113484 
L 267.459553 216.855708 
L 269.042402 216.548525 
L 269.935292 216.342305 
L 274.765011 215.463719 
L 280.406448 214.378913 
L 281.096408 214.239284 
L 282.557499 213.966471 
L 283.815662 213.728029 
L 285.154995 213.412253 
L 286.088471 213.257588 
L 287.833663 212.909591 
L 291.60815 212.198559 
L 292.29811 212.091152 
L 293.109827 211.940783 
L 298.913608 210.90968 
L 299.562982 210.78294 
L 305.163833 210.003168 
L 306.584338 209.824874 
L 307.111955 209.745393 
L 313.15925 208.896881 
L 314.173897 208.737919 
L 316.324949 208.394218 
L 322.61576 207.616594 
L 323.99568 207.436151 
L 327.364307 206.967859 
L 328.987742 206.733712 
L 335.359725 205.949644 
L 335.80617 205.900237 
L 343.273971 204.826171 
L 344.532133 204.652173 
L 345.425023 204.527581 
L 348.79365 204.104399 
L 349.970641 203.932549 
L 350.822944 203.820846 
L 353.907471 203.384775 
L 354.597431 203.279517 
L 359.670665 202.630781 
L 363.36398 202.153896 
L 364.865657 201.967008 
L 368.193699 201.548123 
L 370.101236 201.337606 
L 379.1113 200.272132 
L 379.882432 200.181911 
L 380.978251 200.061616 
L 389.704214 199.026216 
L 392.585811 198.680367 
L 398.267834 197.969335 
L 399.891269 197.730893 
L 400.743573 197.625634 
L 401.230603 197.533265 
L 405.613878 196.957565 
L 406.019737 196.899566 
L 408.860748 196.493569 
L 409.550708 196.388311 
L 410.890042 196.214312 
L 411.620588 196.094017 
L 413.812225 195.75676 
L 414.177498 195.715945 
L 420.468309 194.826619 
L 421.198854 194.717064 
L 424.405139 194.317512 
L 425.703887 194.147809 
L 426.393847 194.044699 
L 427.449079 193.881441 
L 428.950757 193.67522 
L 429.884232 193.565666 
L 432.968759 193.187595 
L 434.348679 193.007151 
L 435.647427 192.843893 
L 438.56961 192.429304 
L 439.178398 192.351971 
L 440.923591 192.089899 
L 442.019409 191.922345 
L 447.742018 191.12324 
L 448.634907 191.015834 
L 450.014827 190.83539 
L 451.151231 190.665688 
L 452.93701 190.392875 
L 453.586384 190.283321 
L 466.289764 188.158819 
L 466.857966 188.066449 
L 472.702332 187.028901 
L 473.392292 186.891421 
L 475.137485 186.543424 
L 478.790214 185.853873 
L 479.723689 185.67343 
L 480.941265 185.465062 
L 484.106963 184.902251 
L 485.081024 184.741141 
L 486.826217 184.448995 
L 487.435005 184.341589 
L 498.109091 182.706861 
L 498.109091 182.706861 
" clip-path="url(#p8f6a73d315)" style="fill: none; stroke: #2ca02c; stroke-width: 1.5; stroke-linecap: square"/>
   </g>
   <g id="line2d_26">
    <path d="M 92.290909 246.24 
L 103.817298 246.132593 
L 105.197218 246.098223 
L 112.056231 245.844744 
L 117.981769 245.735189 
L 121.269225 245.670745 
L 124.110236 245.56119 
L 128.777612 245.42371 
L 133.039129 245.314155 
L 150.856329 244.48068 
L 153.41324 244.371126 
L 158.486474 244.212164 
L 163.072678 244.102609 
L 168.4706 243.926462 
L 174.233794 243.819056 
L 175.370199 243.808315 
L 179.469372 243.700908 
L 180.930464 243.657946 
L 187.140103 243.438836 
L 192.740954 243.329282 
L 196.556027 243.236912 
L 203.41504 243.127357 
L 206.296637 243.084395 
L 209.827608 242.976988 
L 211.248114 242.938322 
L 215.469045 242.833063 
L 216.443106 242.790101 
L 220.177007 242.680546 
L 223.018018 242.639731 
L 228.131839 242.530177 
L 237.223075 242.15855 
L 242.78334 242.048995 
L 248.303019 241.866404 
L 253.335668 241.756849 
L 254.918517 241.700998 
L 257.394256 241.602184 
L 257.921872 241.548481 
L 266.688422 241.194039 
L 269.367089 241.084484 
L 274.359152 240.929819 
L 280.609377 240.820264 
L 281.989297 240.783746 
L 286.088471 240.676339 
L 288.15835 240.568933 
L 291.121119 240.521674 
L 294.895606 240.412119 
L 312.875149 239.570051 
L 316.203191 239.460497 
L 317.867212 239.396053 
L 321.844628 239.295091 
L 325.294428 239.187684 
L 326.755519 239.144721 
L 329.961803 239.035167 
L 350.904116 238.036286 
L 353.217511 237.928879 
L 353.988643 237.877324 
L 357.113755 237.767769 
L 365.393274 237.222144 
L 366.651436 237.131922 
L 370.507094 236.822591 
L 371.562327 236.710888 
L 374.849783 236.427335 
L 376.026774 236.350002 
L 390.718861 235.681933 
L 392.99167 235.572379 
L 409.834809 234.571349 
L 412.67582 234.380166 
L 414.623942 234.270611 
L 418.236085 233.999946 
L 420.06245 233.89254 
L 421.645299 233.836688 
L 423.065805 233.727134 
L 431.954112 233.366247 
L 434.42985 233.260989 
L 435.728598 233.164323 
L 446.362098 232.494106 
L 448.919008 232.199812 
L 450.948302 232.092405 
L 452.287636 232.060183 
L 454.560445 231.954925 
L 455.372163 231.933444 
L 458.497275 231.823889 
L 462.799378 231.705742 
L 467.466754 231.596187 
L 470.835382 231.527447 
L 474.650454 231.417892 
L 485.202782 230.968933 
L 487.19149 230.865822 
L 487.840864 230.835748 
L 495.308665 230.550047 
L 498.109091 230.455529 
L 498.109091 230.455529 
" clip-path="url(#p8f6a73d315)" style="fill: none; stroke: #d62728; stroke-width: 1.5; stroke-linecap: square"/>
   </g>
   <g id="line2d_27">
    <path d="M 92.290909 246.24 
L 95.537779 245.887706 
L 98.784649 245.634227 
L 103.654955 245.385044 
L 111.77213 245.180971 
L 118.26587 245.03275 
L 132.876786 244.596679 
L 155.604877 244.048906 
L 168.592357 243.737427 
L 209.178234 242.824471 
L 296.843728 240.607599 
L 309.831209 240.328342 
L 329.312429 239.909456 
L 340.676475 239.60657 
L 475.421586 236.326373 
L 496.526242 235.877413 
L 496.526242 235.877413 
" clip-path="url(#p8f6a73d315)" style="fill: none; stroke: #9467bd; stroke-width: 1.5; stroke-linecap: square"/>
   </g>
   <g id="patch_3">
    <path d="M 72 256.32 
L 72 34.56 
" style="fill: none; stroke: #000000; stroke-width: 0.8; stroke-linejoin: miter; stroke-linecap: square"/>
   </g>
   <g id="patch_4">
    <path d="M 518.4 256.32 
L 518.4 34.56 
" style="fill: none; stroke: #000000; stroke-width: 0.8; stroke-linejoin: miter; stroke-linecap: square"/>
   </g>
   <g id="patch_5">
    <path d="M 72 256.32 
L 518.4 256.32 
" style="fill: none; stroke: #000000; stroke-width: 0.8; stroke-linejoin: miter; stroke-linecap: square"/>
   </g>
   <g id="patch_6">
    <path d="M 72 34.56 
L 518.4 34.56 
" style="fill: none; stroke: #000000; stroke-width: 0.8; stroke-linejoin: miter; stroke-linecap: square"/>
   </g>
   <g id="text_14">
    <!-- Average Culling Cause Statistic by Intrusion Radius -->
    <g transform="translate(141.792187 28.56) scale(0.12 -0.12)">
     <defs>
      <path id="DejaVuSans-62" d="M 3116 1747 
Q 3116 2381 2855 2742 
Q 2594 3103 2138 3103 
Q 1681 3103 1420 2742 
Q 1159 2381 1159 1747 
Q 1159 1113 1420 752 
Q 1681 391 2138 391 
Q 2594 391 2855 752 
Q 3116 1113 3116 1747 
z
M 1159 2969 
Q 1341 3281 1617 3432 
Q 1894 3584 2278 3584 
Q 2916 3584 3314 3078 
Q 3713 2572 3713 1747 
Q 3713 922 3314 415 
Q 2916 -91 2278 -91 
Q 1894 -91 1617 61 
Q 1341 213 1159 525 
L 1159 0 
L 581 0 
L 581 4863 
L 1159 4863 
L 1159 2969 
z
" transform="scale(0.015625)"/>
      <path id="DejaVuSans-79" d="M 2059 -325 
Q 1816 -950 1584 -1140 
Q 1353 -1331 966 -1331 
L 506 -1331 
L 506 -850 
L 844 -850 
Q 1081 -850 1212 -737 
Q 1344 -625 1503 -206 
L 1606 56 
L 191 3500 
L 800 3500 
L 1894 763 
L 2988 3500 
L 3597 3500 
L 2059 -325 
z
" transform="scale(0.015625)"/>
     </defs>
     <use xlink:href="#DejaVuSans-41"/>
     <use xlink:href="#DejaVuSans-76" x="62.533203"/>
     <use xlink:href="#DejaVuSans-65" x="121.712891"/>
     <use xlink:href="#DejaVuSans-72" x="183.236328"/>
     <use xlink:href="#DejaVuSans-61" x="224.349609"/>
     <use xlink:href="#DejaVuSans-67" x="285.628906"/>
     <use xlink:href="#DejaVuSans-65" x="349.105469"/>
     <use xlink:href="#DejaVuSans-20" x="410.628906"/>
     <use xlink:href="#DejaVuSans-43" x="442.416016"/>
     <use xlink:href="#DejaVuSans-75" x="512.240234"/>
     <use xlink:href="#DejaVuSans-6c" x="575.619141"/>
     <use xlink:href="#DejaVuSans-6c" x="603.402344"/>
     <use xlink:href="#DejaVuSans-69" x="631.185547"/>
     <use xlink:href="#DejaVuSans-6e" x="658.96875"/>
     <use xlink:href="#DejaVuSans-67" x="722.347656"/>
     <use xlink:href="#DejaVuSans-20" x="785.824219"/>
     <use xlink:href="#DejaVuSans-43" x="817.611328"/>
     <use xlink:href="#DejaVuSans-61" x="887.435547"/>
     <use xlink:href="#DejaVuSans-75" x="948.714844"/>
     <use xlink:href="#DejaVuSans-73" x="1012.09375"/>
     <use xlink:href="#DejaVuSans-65" x="1064.193359"/>
     <use xlink:href="#DejaVuSans-20" x="1125.716797"/>
     <use xlink:href="#DejaVuSans-53" x="1157.503906"/>
     <use xlink:href="#DejaVuSans-74" x="1220.980469"/>
     <use xlink:href="#DejaVuSans-61" x="1260.189453"/>
     <use xlink:href="#DejaVuSans-74" x="1321.46875"/>
     <use xlink:href="#DejaVuSans-69" x="1360.677734"/>
     <use xlink:href="#DejaVuSans-73" x="1388.460938"/>
     <use xlink:href="#DejaVuSans-74" x="1440.560547"/>
     <use xlink:href="#DejaVuSans-69" x="1479.769531"/>
     <use xlink:href="#DejaVuSans-63" x="1507.552734"/>
     <use xlink:href="#DejaVuSans-20" x="1562.533203"/>
     <use xlink:href="#DejaVuSans-62" x="1594.320312"/>
     <use xlink:href="#DejaVuSans-79" x="1657.796875"/>
     <use xlink:href="#DejaVuSans-20" x="1716.976562"/>
     <use xlink:href="#DejaVuSans-49" x="1748.763672"/>
     <use xlink:href="#DejaVuSans-6e" x="1778.255859"/>
     <use xlink:href="#DejaVuSans-74" x="1841.634766"/>
     <use xlink:href="#DejaVuSans-72" x="1880.84375"/>
     <use xlink:href="#DejaVuSans-75" x="1921.957031"/>
     <use xlink:href="#DejaVuSans-73" x="1985.335938"/>
     <use xlink:href="#DejaVuSans-69" x="2037.435547"/>
     <use xlink:href="#DejaVuSans-6f" x="2065.21875"/>
     <use xlink:href="#DejaVuSans-6e" x="2126.400391"/>
     <use xlink:href="#DejaVuSans-20" x="2189.779297"/>
     <use xlink:href="#DejaVuSans-52" x="2221.566406"/>
     <use xlink:href="#DejaVuSans-61" x="2288.798828"/>
     <use xlink:href="#DejaVuSans-64" x="2350.078125"/>
     <use xlink:href="#DejaVuSans-69" x="2413.554688"/>
     <use xlink:href="#DejaVuSans-75" x="2441.337891"/>
     <use xlink:href="#DejaVuSans-73" x="2504.716797"/>
    </g>
   </g>
   <g id="legend_1">
    <g id="patch_7">
     <path d="M 79 115.950625 
L 321.610937 115.950625 
Q 323.610937 115.950625 323.610937 113.950625 
L 323.610937 41.56 
Q 323.610937 39.56 321.610937 39.56 
L 79 39.56 
Q 77 39.56 77 41.56 
L 77 113.950625 
Q 77 115.950625 79 115.950625 
z
" style="fill: #ffffff; opacity: 0.8; stroke: #cccccc; stroke-linejoin: miter"/>
    </g>
    <g id="line2d_28">
     <path d="M 81 47.658437 
L 91 47.658437 
L 101 47.658437 
" style="fill: none; stroke: #1f77b4; stroke-width: 1.5; stroke-linecap: square"/>
    </g>
    <g id="text_15">
     <!-- Culling Statistic - Intrusion Radius: 60 -->
     <g transform="translate(109 51.158437) scale(0.1 -0.1)">
      <defs>
       <path id="DejaVuSans-2d" d="M 313 2009 
L 1997 2009 
L 1997 1497 
L 313 1497 
L 313 2009 
z
" transform="scale(0.015625)"/>
       <path id="DejaVuSans-3a" d="M 750 794 
L 1409 794 
L 1409 0 
L 750 0 
L 750 794 
z
M 750 3309 
L 1409 3309 
L 1409 2516 
L 750 2516 
L 750 3309 
z
" transform="scale(0.015625)"/>
      </defs>
      <use xlink:href="#DejaVuSans-43"/>
      <use xlink:href="#DejaVuSans-75" x="69.824219"/>
      <use xlink:href="#DejaVuSans-6c" x="133.203125"/>
      <use xlink:href="#DejaVuSans-6c" x="160.986328"/>
      <use xlink:href="#DejaVuSans-69" x="188.769531"/>
      <use xlink:href="#DejaVuSans-6e" x="216.552734"/>
      <use xlink:href="#DejaVuSans-67" x="279.931641"/>
      <use xlink:href="#DejaVuSans-20" x="343.408203"/>
      <use xlink:href="#DejaVuSans-53" x="375.195312"/>
      <use xlink:href="#DejaVuSans-74" x="438.671875"/>
      <use xlink:href="#DejaVuSans-61" x="477.880859"/>
      <use xlink:href="#DejaVuSans-74" x="539.160156"/>
      <use xlink:href="#DejaVuSans-69" x="578.369141"/>
      <use xlink:href="#DejaVuSans-73" x="606.152344"/>
      <use xlink:href="#DejaVuSans-74" x="658.251953"/>
      <use xlink:href="#DejaVuSans-69" x="697.460938"/>
      <use xlink:href="#DejaVuSans-63" x="725.244141"/>
      <use xlink:href="#DejaVuSans-20" x="780.224609"/>
      <use xlink:href="#DejaVuSans-2d" x="812.011719"/>
      <use xlink:href="#DejaVuSans-20" x="848.095703"/>
      <use xlink:href="#DejaVuSans-49" x="879.882812"/>
      <use xlink:href="#DejaVuSans-6e" x="909.375"/>
      <use xlink:href="#DejaVuSans-74" x="972.753906"/>
      <use xlink:href="#DejaVuSans-72" x="1011.962891"/>
      <use xlink:href="#DejaVuSans-75" x="1053.076172"/>
      <use xlink:href="#DejaVuSans-73" x="1116.455078"/>
      <use xlink:href="#DejaVuSans-69" x="1168.554688"/>
      <use xlink:href="#DejaVuSans-6f" x="1196.337891"/>
      <use xlink:href="#DejaVuSans-6e" x="1257.519531"/>
      <use xlink:href="#DejaVuSans-20" x="1320.898438"/>
      <use xlink:href="#DejaVuSans-52" x="1352.685547"/>
      <use xlink:href="#DejaVuSans-61" x="1419.917969"/>
      <use xlink:href="#DejaVuSans-64" x="1481.197266"/>
      <use xlink:href="#DejaVuSans-69" x="1544.673828"/>
      <use xlink:href="#DejaVuSans-75" x="1572.457031"/>
      <use xlink:href="#DejaVuSans-73" x="1635.835938"/>
      <use xlink:href="#DejaVuSans-3a" x="1687.935547"/>
      <use xlink:href="#DejaVuSans-20" x="1721.626953"/>
      <use xlink:href="#DejaVuSans-36" x="1753.414062"/>
      <use xlink:href="#DejaVuSans-30" x="1817.037109"/>
     </g>
    </g>
    <g id="line2d_29">
     <path d="M 81 62.336562 
L 91 62.336562 
L 101 62.336562 
" style="fill: none; stroke: #ff7f0e; stroke-width: 1.5; stroke-linecap: square"/>
    </g>
    <g id="text_16">
     <!-- Death by Culling - Intrusion Radius: 60 -->
     <g transform="translate(109 65.836562) scale(0.1 -0.1)">
      <defs>
       <path id="DejaVuSans-44" d="M 1259 4147 
L 1259 519 
L 2022 519 
Q 2988 519 3436 956 
Q 3884 1394 3884 2338 
Q 3884 3275 3436 3711 
Q 2988 4147 2022 4147 
L 1259 4147 
z
M 628 4666 
L 1925 4666 
Q 3281 4666 3915 4102 
Q 4550 3538 4550 2338 
Q 4550 1131 3912 565 
Q 3275 0 1925 0 
L 628 0 
L 628 4666 
z
" transform="scale(0.015625)"/>
       <path id="DejaVuSans-68" d="M 3513 2113 
L 3513 0 
L 2938 0 
L 2938 2094 
Q 2938 2591 2744 2837 
Q 2550 3084 2163 3084 
Q 1697 3084 1428 2787 
Q 1159 2491 1159 1978 
L 1159 0 
L 581 0 
L 581 4863 
L 1159 4863 
L 1159 2956 
Q 1366 3272 1645 3428 
Q 1925 3584 2291 3584 
Q 2894 3584 3203 3211 
Q 3513 2838 3513 2113 
z
" transform="scale(0.015625)"/>
      </defs>
      <use xlink:href="#DejaVuSans-44"/>
      <use xlink:href="#DejaVuSans-65" x="77.001953"/>
      <use xlink:href="#DejaVuSans-61" x="138.525391"/>
      <use xlink:href="#DejaVuSans-74" x="199.804688"/>
      <use xlink:href="#DejaVuSans-68" x="239.013672"/>
      <use xlink:href="#DejaVuSans-20" x="302.392578"/>
      <use xlink:href="#DejaVuSans-62" x="334.179688"/>
      <use xlink:href="#DejaVuSans-79" x="397.65625"/>
      <use xlink:href="#DejaVuSans-20" x="456.835938"/>
      <use xlink:href="#DejaVuSans-43" x="488.623047"/>
      <use xlink:href="#DejaVuSans-75" x="558.447266"/>
      <use xlink:href="#DejaVuSans-6c" x="621.826172"/>
      <use xlink:href="#DejaVuSans-6c" x="649.609375"/>
      <use xlink:href="#DejaVuSans-69" x="677.392578"/>
      <use xlink:href="#DejaVuSans-6e" x="705.175781"/>
      <use xlink:href="#DejaVuSans-67" x="768.554688"/>
      <use xlink:href="#DejaVuSans-20" x="832.03125"/>
      <use xlink:href="#DejaVuSans-2d" x="863.818359"/>
      <use xlink:href="#DejaVuSans-20" x="899.902344"/>
      <use xlink:href="#DejaVuSans-49" x="931.689453"/>
      <use xlink:href="#DejaVuSans-6e" x="961.181641"/>
      <use xlink:href="#DejaVuSans-74" x="1024.560547"/>
      <use xlink:href="#DejaVuSans-72" x="1063.769531"/>
      <use xlink:href="#DejaVuSans-75" x="1104.882812"/>
      <use xlink:href="#DejaVuSans-73" x="1168.261719"/>
      <use xlink:href="#DejaVuSans-69" x="1220.361328"/>
      <use xlink:href="#DejaVuSans-6f" x="1248.144531"/>
      <use xlink:href="#DejaVuSans-6e" x="1309.326172"/>
      <use xlink:href="#DejaVuSans-20" x="1372.705078"/>
      <use xlink:href="#DejaVuSans-52" x="1404.492188"/>
      <use xlink:href="#DejaVuSans-61" x="1471.724609"/>
      <use xlink:href="#DejaVuSans-64" x="1533.003906"/>
      <use xlink:href="#DejaVuSans-69" x="1596.480469"/>
      <use xlink:href="#DejaVuSans-75" x="1624.263672"/>
      <use xlink:href="#DejaVuSans-73" x="1687.642578"/>
      <use xlink:href="#DejaVuSans-3a" x="1739.742188"/>
      <use xlink:href="#DejaVuSans-20" x="1773.433594"/>
      <use xlink:href="#DejaVuSans-36" x="1805.220703"/>
      <use xlink:href="#DejaVuSans-30" x="1868.84375"/>
     </g>
    </g>
    <g id="line2d_30">
     <path d="M 81 77.014687 
L 91 77.014687 
L 101 77.014687 
" style="fill: none; stroke: #2ca02c; stroke-width: 1.5; stroke-linecap: square"/>
    </g>
    <g id="text_17">
     <!-- Death by Predator - Intrusion Radius: 60 -->
     <g transform="translate(109 80.514687) scale(0.1 -0.1)">
      <defs>
       <path id="DejaVuSans-50" d="M 1259 4147 
L 1259 2394 
L 2053 2394 
Q 2494 2394 2734 2622 
Q 2975 2850 2975 3272 
Q 2975 3691 2734 3919 
Q 2494 4147 2053 4147 
L 1259 4147 
z
M 628 4666 
L 2053 4666 
Q 2838 4666 3239 4311 
Q 3641 3956 3641 3272 
Q 3641 2581 3239 2228 
Q 2838 1875 2053 1875 
L 1259 1875 
L 1259 0 
L 628 0 
L 628 4666 
z
" transform="scale(0.015625)"/>
      </defs>
      <use xlink:href="#DejaVuSans-44"/>
      <use xlink:href="#DejaVuSans-65" x="77.001953"/>
      <use xlink:href="#DejaVuSans-61" x="138.525391"/>
      <use xlink:href="#DejaVuSans-74" x="199.804688"/>
      <use xlink:href="#DejaVuSans-68" x="239.013672"/>
      <use xlink:href="#DejaVuSans-20" x="302.392578"/>
      <use xlink:href="#DejaVuSans-62" x="334.179688"/>
      <use xlink:href="#DejaVuSans-79" x="397.65625"/>
      <use xlink:href="#DejaVuSans-20" x="456.835938"/>
      <use xlink:href="#DejaVuSans-50" x="488.623047"/>
      <use xlink:href="#DejaVuSans-72" x="547.175781"/>
      <use xlink:href="#DejaVuSans-65" x="586.039062"/>
      <use xlink:href="#DejaVuSans-64" x="647.5625"/>
      <use xlink:href="#DejaVuSans-61" x="711.039062"/>
      <use xlink:href="#DejaVuSans-74" x="772.318359"/>
      <use xlink:href="#DejaVuSans-6f" x="811.527344"/>
      <use xlink:href="#DejaVuSans-72" x="872.708984"/>
      <use xlink:href="#DejaVuSans-20" x="913.822266"/>
      <use xlink:href="#DejaVuSans-2d" x="945.609375"/>
      <use xlink:href="#DejaVuSans-20" x="981.693359"/>
      <use xlink:href="#DejaVuSans-49" x="1013.480469"/>
      <use xlink:href="#DejaVuSans-6e" x="1042.972656"/>
      <use xlink:href="#DejaVuSans-74" x="1106.351562"/>
      <use xlink:href="#DejaVuSans-72" x="1145.560547"/>
      <use xlink:href="#DejaVuSans-75" x="1186.673828"/>
      <use xlink:href="#DejaVuSans-73" x="1250.052734"/>
      <use xlink:href="#DejaVuSans-69" x="1302.152344"/>
      <use xlink:href="#DejaVuSans-6f" x="1329.935547"/>
      <use xlink:href="#DejaVuSans-6e" x="1391.117188"/>
      <use xlink:href="#DejaVuSans-20" x="1454.496094"/>
      <use xlink:href="#DejaVuSans-52" x="1486.283203"/>
      <use xlink:href="#DejaVuSans-61" x="1553.515625"/>
      <use xlink:href="#DejaVuSans-64" x="1614.794922"/>
      <use xlink:href="#DejaVuSans-69" x="1678.271484"/>
      <use xlink:href="#DejaVuSans-75" x="1706.054688"/>
      <use xlink:href="#DejaVuSans-73" x="1769.433594"/>
      <use xlink:href="#DejaVuSans-3a" x="1821.533203"/>
      <use xlink:href="#DejaVuSans-20" x="1855.224609"/>
      <use xlink:href="#DejaVuSans-36" x="1887.011719"/>
      <use xlink:href="#DejaVuSans-30" x="1950.634766"/>
     </g>
    </g>
    <g id="line2d_31">
     <path d="M 81 91.692813 
L 91 91.692813 
L 101 91.692813 
" style="fill: none; stroke: #d62728; stroke-width: 1.5; stroke-linecap: square"/>
    </g>
    <g id="text_18">
     <!-- Death by Starvation - Intrusion Radius: 60 -->
     <g transform="translate(109 95.192813) scale(0.1 -0.1)">
      <use xlink:href="#DejaVuSans-44"/>
      <use xlink:href="#DejaVuSans-65" x="77.001953"/>
      <use xlink:href="#DejaVuSans-61" x="138.525391"/>
      <use xlink:href="#DejaVuSans-74" x="199.804688"/>
      <use xlink:href="#DejaVuSans-68" x="239.013672"/>
      <use xlink:href="#DejaVuSans-20" x="302.392578"/>
      <use xlink:href="#DejaVuSans-62" x="334.179688"/>
      <use xlink:href="#DejaVuSans-79" x="397.65625"/>
      <use xlink:href="#DejaVuSans-20" x="456.835938"/>
      <use xlink:href="#DejaVuSans-53" x="488.623047"/>
      <use xlink:href="#DejaVuSans-74" x="552.099609"/>
      <use xlink:href="#DejaVuSans-61" x="591.308594"/>
      <use xlink:href="#DejaVuSans-72" x="652.587891"/>
      <use xlink:href="#DejaVuSans-76" x="693.701172"/>
      <use xlink:href="#DejaVuSans-61" x="752.880859"/>
      <use xlink:href="#DejaVuSans-74" x="814.160156"/>
      <use xlink:href="#DejaVuSans-69" x="853.369141"/>
      <use xlink:href="#DejaVuSans-6f" x="881.152344"/>
      <use xlink:href="#DejaVuSans-6e" x="942.333984"/>
      <use xlink:href="#DejaVuSans-20" x="1005.712891"/>
      <use xlink:href="#DejaVuSans-2d" x="1037.5"/>
      <use xlink:href="#DejaVuSans-20" x="1073.583984"/>
      <use xlink:href="#DejaVuSans-49" x="1105.371094"/>
      <use xlink:href="#DejaVuSans-6e" x="1134.863281"/>
      <use xlink:href="#DejaVuSans-74" x="1198.242188"/>
      <use xlink:href="#DejaVuSans-72" x="1237.451172"/>
      <use xlink:href="#DejaVuSans-75" x="1278.564453"/>
      <use xlink:href="#DejaVuSans-73" x="1341.943359"/>
      <use xlink:href="#DejaVuSans-69" x="1394.042969"/>
      <use xlink:href="#DejaVuSans-6f" x="1421.826172"/>
      <use xlink:href="#DejaVuSans-6e" x="1483.007812"/>
      <use xlink:href="#DejaVuSans-20" x="1546.386719"/>
      <use xlink:href="#DejaVuSans-52" x="1578.173828"/>
      <use xlink:href="#DejaVuSans-61" x="1645.40625"/>
      <use xlink:href="#DejaVuSans-64" x="1706.685547"/>
      <use xlink:href="#DejaVuSans-69" x="1770.162109"/>
      <use xlink:href="#DejaVuSans-75" x="1797.945312"/>
      <use xlink:href="#DejaVuSans-73" x="1861.324219"/>
      <use xlink:href="#DejaVuSans-3a" x="1913.423828"/>
      <use xlink:href="#DejaVuSans-20" x="1947.115234"/>
      <use xlink:href="#DejaVuSans-36" x="1978.902344"/>
      <use xlink:href="#DejaVuSans-30" x="2042.525391"/>
     </g>
    </g>
    <g id="line2d_32">
     <path d="M 81 106.370937 
L 91 106.370937 
L 101 106.370937 
" style="fill: none; stroke: #9467bd; stroke-width: 1.5; stroke-linecap: square"/>
    </g>
    <g id="text_19">
     <!-- Death by Age - Intrusion Radius: 60 -->
     <g transform="translate(109 109.870937) scale(0.1 -0.1)">
      <use xlink:href="#DejaVuSans-44"/>
      <use xlink:href="#DejaVuSans-65" x="77.001953"/>
      <use xlink:href="#DejaVuSans-61" x="138.525391"/>
      <use xlink:href="#DejaVuSans-74" x="199.804688"/>
      <use xlink:href="#DejaVuSans-68" x="239.013672"/>
      <use xlink:href="#DejaVuSans-20" x="302.392578"/>
      <use xlink:href="#DejaVuSans-62" x="334.179688"/>
      <use xlink:href="#DejaVuSans-79" x="397.65625"/>
      <use xlink:href="#DejaVuSans-20" x="456.835938"/>
      <use xlink:href="#DejaVuSans-41" x="488.623047"/>
      <use xlink:href="#DejaVuSans-67" x="557.03125"/>
      <use xlink:href="#DejaVuSans-65" x="620.507812"/>
      <use xlink:href="#DejaVuSans-20" x="682.03125"/>
      <use xlink:href="#DejaVuSans-2d" x="713.818359"/>
      <use xlink:href="#DejaVuSans-20" x="749.902344"/>
      <use xlink:href="#DejaVuSans-49" x="781.689453"/>
      <use xlink:href="#DejaVuSans-6e" x="811.181641"/>
      <use xlink:href="#DejaVuSans-74" x="874.560547"/>
      <use xlink:href="#DejaVuSans-72" x="913.769531"/>
      <use xlink:href="#DejaVuSans-75" x="954.882812"/>
      <use xlink:href="#DejaVuSans-73" x="1018.261719"/>
      <use xlink:href="#DejaVuSans-69" x="1070.361328"/>
      <use xlink:href="#DejaVuSans-6f" x="1098.144531"/>
      <use xlink:href="#DejaVuSans-6e" x="1159.326172"/>
      <use xlink:href="#DejaVuSans-20" x="1222.705078"/>
      <use xlink:href="#DejaVuSans-52" x="1254.492188"/>
      <use xlink:href="#DejaVuSans-61" x="1321.724609"/>
      <use xlink:href="#DejaVuSans-64" x="1383.003906"/>
      <use xlink:href="#DejaVuSans-69" x="1446.480469"/>
      <use xlink:href="#DejaVuSans-75" x="1474.263672"/>
      <use xlink:href="#DejaVuSans-73" x="1537.642578"/>
      <use xlink:href="#DejaVuSans-3a" x="1589.742188"/>
      <use xlink:href="#DejaVuSans-20" x="1623.433594"/>
      <use xlink:href="#DejaVuSans-36" x="1655.220703"/>
      <use xlink:href="#DejaVuSans-30" x="1718.84375"/>
     </g>
    </g>
   </g>
  </g>
 </g>
 <defs>
  <clipPath id="p8f6a73d315">
   <rect x="72" y="34.56" width="446.4" height="221.76"/>
  </clipPath>
 </defs>
</svg>
